<svg width="1100" height="200" viewBox="0 0 1100 200" fill="none" xmlns="http://www.w3.org/2000/svg">
<ellipse cx="153.837" cy="21.5517" rx="26.1628" ry="21.5517" fill="#6862BA"/>
<ellipse cx="26.1628" cy="96.5518" rx="26.1628" ry="21.5517" fill="#6862BA"/>
<ellipse cx="153.837" cy="178.448" rx="26.1628" ry="21.5517" fill="#6862BA"/>
<line y1="-10" x2="135.612" y2="-10" transform="matrix(-0.872015 0.489479 -0.637394 -0.770538 135 21.5518)" stroke="#6862BA" stroke-width="20"/>
<line y1="-10" x2="133.604" y2="-10" transform="matrix(-0.830194 -0.557475 0.703393 -0.710801 153.824 171.033)" stroke="#6862BA" stroke-width="20"/>
<path d="M266.68 136.8C262.76 136.8 258.96 136.4 255.28 135.6C251.68 134.8 248.6 133.72 246.04 132.36L247.6 117.96C250.32 119.64 253.32 121 256.6 122.04C259.88 123.08 262.96 123.6 265.84 123.6C268.56 123.6 270.84 123.12 272.68 122.16C274.52 121.12 275.44 119.64 275.44 117.72C275.44 116.2 274.8 115.04 273.52 114.24C272.24 113.36 269.8 112.28 266.2 111L262.96 109.8C259.52 108.52 256.72 107.32 254.56 106.2C252.4 105 250.44 103.2 248.68 100.8C246.92 98.4 246.04 95.24 246.04 91.32C246.04 85.08 248.36 80.24 253 76.8C257.72 73.28 263.84 71.52 271.36 71.52C277.28 71.52 283.52 72.68 290.08 75L287.8 89.28C285.48 87.92 282.84 86.84 279.88 86.04C277 85.16 274.28 84.72 271.72 84.72C269.08 84.72 266.96 85.16 265.36 86.04C263.84 86.92 263.08 88.2 263.08 89.88C263.08 91.48 263.72 92.68 265 93.48C266.28 94.28 268.44 95.2 271.48 96.24C273.88 97.12 275.28 97.64 275.68 97.8C279.04 99.16 281.84 100.48 284.08 101.76C286.32 103.04 288.28 104.96 289.96 107.52C291.64 110 292.48 113.2 292.48 117.12C292.48 123.68 290.12 128.6 285.4 131.88C280.68 135.16 274.44 136.8 266.68 136.8ZM346.224 136.8C339.984 136.8 334.464 135.44 329.664 132.72C324.944 130 321.264 126.2 318.624 121.32C315.984 116.36 314.664 110.64 314.664 104.16C314.664 97.68 315.944 92 318.504 87.12C321.144 82.16 324.824 78.32 329.544 75.6C334.344 72.88 339.864 71.52 346.104 71.52C352.344 71.52 357.824 72.88 362.544 75.6C367.344 78.24 371.024 82 373.584 86.88C376.224 91.76 377.544 97.4 377.544 103.8C377.544 110.28 376.224 116.04 373.584 121.08C371.024 126.04 367.344 129.92 362.544 132.72C357.824 135.44 352.384 136.8 346.224 136.8ZM346.104 122.16C350.424 122.16 353.864 120.52 356.424 117.24C359.064 113.88 360.384 109.48 360.384 104.04C360.384 98.6 359.064 94.28 356.424 91.08C353.864 87.8 350.424 86.16 346.104 86.16C341.784 86.16 338.304 87.8 335.664 91.08C333.104 94.28 331.824 98.6 331.824 104.04C331.824 109.48 333.104 113.88 335.664 117.24C338.304 120.52 341.784 122.16 346.104 122.16ZM432.672 136.8C422.432 136.8 414.472 134.08 408.792 128.64C403.192 123.2 400.392 115.52 400.392 105.6C400.392 98.88 401.712 92.96 404.352 87.84C406.992 82.64 410.712 78.64 415.512 75.84C420.312 72.96 425.872 71.52 432.192 71.52C435.152 71.52 438.232 71.88 441.432 72.6C444.712 73.24 447.232 74 448.992 74.88L445.752 89.16C443.912 88.28 441.872 87.6 439.632 87.12C437.472 86.56 435.432 86.28 433.512 86.28C428.552 86.28 424.552 87.96 421.512 91.32C418.552 94.68 417.072 99.12 417.072 104.64C417.072 110.24 418.592 114.56 421.632 117.6C424.752 120.64 429.152 122.16 434.832 122.16C438.592 122.16 442.632 121.44 446.952 120L449.472 133.68C444.272 135.76 438.672 136.8 432.672 136.8ZM481.928 47.4H501.248V63H481.928V47.4ZM472.568 120.48H484.088V87.72H472.568V73.2H501.008V120.48H511.328V135H472.568V120.48ZM552.449 136.8C546.049 136.8 540.969 134.08 537.209 128.64C533.449 123.2 531.569 115.8 531.569 106.44C531.569 95.08 534.449 86.44 540.209 80.52C545.969 74.52 554.249 71.52 565.049 71.52C571.129 71.52 578.249 72.48 586.409 74.4V135H570.329L570.689 125.16H570.209C568.129 128.92 565.569 131.8 562.529 133.8C559.569 135.8 556.209 136.8 552.449 136.8ZM556.049 122.04C558.529 122.04 560.969 120.72 563.369 118.08C565.769 115.44 568.009 111.92 570.089 107.52V87.36C567.529 86.64 564.969 86.28 562.409 86.28C557.609 86.28 553.969 87.92 551.489 91.2C549.089 94.48 547.889 99.32 547.889 105.72C547.889 110.76 548.609 114.76 550.049 117.72C551.489 120.6 553.489 122.04 556.049 122.04ZM611.22 120.48H622.14V61.8H611.82V47.4H639.06V120.48H649.98V135H611.22V120.48ZM692.169 136.8C688.249 136.8 684.449 136.4 680.769 135.6C677.169 134.8 674.089 133.72 671.529 132.36L673.089 117.96C675.809 119.64 678.809 121 682.089 122.04C685.369 123.08 688.449 123.6 691.329 123.6C694.049 123.6 696.329 123.12 698.169 122.16C700.009 121.12 700.929 119.64 700.929 117.72C700.929 116.2 700.289 115.04 699.009 114.24C697.729 113.36 695.289 112.28 691.689 111L688.449 109.8C685.009 108.52 682.209 107.32 680.049 106.2C677.889 105 675.929 103.2 674.169 100.8C672.409 98.4 671.529 95.24 671.529 91.32C671.529 85.08 673.849 80.24 678.489 76.8C683.209 73.28 689.329 71.52 696.849 71.52C702.769 71.52 709.009 72.68 715.569 75L713.289 89.28C710.969 87.92 708.329 86.84 705.369 86.04C702.489 85.16 699.769 84.72 697.209 84.72C694.569 84.72 692.449 85.16 690.849 86.04C689.329 86.92 688.569 88.2 688.569 89.88C688.569 91.48 689.209 92.68 690.489 93.48C691.769 94.28 693.929 95.2 696.969 96.24C699.369 97.12 700.769 97.64 701.169 97.8C704.529 99.16 707.329 100.48 709.569 101.76C711.809 103.04 713.769 104.96 715.449 107.52C717.129 110 717.969 113.2 717.969 117.12C717.969 123.68 715.609 128.6 710.889 131.88C706.169 135.16 699.929 136.8 692.169 136.8ZM743.739 47.4H760.659V82.2C763.139 78.52 765.979 75.84 769.179 74.16C772.379 72.4 776.059 71.52 780.219 71.52C786.859 71.52 792.059 73.52 795.819 77.52C799.579 81.44 801.459 86.92 801.459 93.96V135H784.539V96.6C784.539 93.4 783.739 90.92 782.139 89.16C780.539 87.32 778.379 86.4 775.659 86.4C772.699 86.4 769.859 87.44 767.139 89.52C764.499 91.52 762.339 94.2 760.659 97.56V135H743.739V47.4ZM848.178 136.8C841.778 136.8 836.698 134.08 832.938 128.64C829.178 123.2 827.298 115.8 827.298 106.44C827.298 95.08 830.178 86.44 835.938 80.52C841.698 74.52 849.978 71.52 860.778 71.52C866.858 71.52 873.978 72.48 882.138 74.4V135H866.058L866.418 125.16H865.938C863.858 128.92 861.298 131.8 858.258 133.8C855.298 135.8 851.938 136.8 848.178 136.8ZM851.778 122.04C854.258 122.04 856.698 120.72 859.098 118.08C861.498 115.44 863.738 111.92 865.818 107.52V87.36C863.258 86.64 860.698 86.28 858.138 86.28C853.338 86.28 849.698 87.92 847.218 91.2C844.818 94.48 843.618 99.32 843.618 105.72C843.618 110.76 844.338 114.76 845.778 117.72C847.218 120.6 849.218 122.04 851.778 122.04ZM911.827 73.2H928.747V83.28H929.707C932.027 79.2 934.307 76.2 936.547 74.28C938.867 72.36 941.747 71.4 945.187 71.4C946.627 71.4 947.827 71.56 948.787 71.88L946.987 90.12C944.907 89.56 943.227 89.28 941.947 89.28C940.107 89.28 938.467 89.64 937.027 90.36C935.667 91.08 934.427 92.04 933.307 93.24C932.267 94.44 930.747 96.28 928.747 98.76V135H911.827V73.2ZM999.648 136.8C989.648 136.8 981.768 133.92 976.008 128.16C970.328 122.4 967.488 114.4 967.488 104.16C967.488 97.52 968.728 91.76 971.208 86.88C973.688 81.92 977.168 78.12 981.648 75.48C986.208 72.84 991.528 71.52 997.608 71.52C1006.57 71.52 1013.45 74.4 1018.25 80.16C1023.05 85.92 1025.45 94.24 1025.45 105.12C1025.45 106.96 1025.41 108.32 1025.33 109.2H984.528C985.328 113.44 987.168 116.68 990.048 118.92C992.928 121.08 996.808 122.16 1001.69 122.16C1004.65 122.16 1007.73 121.8 1010.93 121.08C1014.13 120.28 1016.93 119.24 1019.33 117.96L1022.09 131.52C1018.89 133.2 1015.33 134.48 1011.41 135.36C1007.57 136.32 1003.65 136.8 999.648 136.8ZM1009.25 96.48C1009.01 93.04 1007.81 90.32 1005.65 88.32C1003.49 86.24 1000.61 85.2 997.008 85.2C993.568 85.2 990.728 86.2 988.488 88.2C986.328 90.2 984.968 92.96 984.408 96.48H1009.25ZM1069.18 136.8C1065.26 136.8 1061.46 136.4 1057.78 135.6C1054.18 134.8 1051.1 133.72 1048.54 132.36L1050.1 117.96C1052.82 119.64 1055.82 121 1059.1 122.04C1062.38 123.08 1065.46 123.6 1068.34 123.6C1071.06 123.6 1073.34 123.12 1075.18 122.16C1077.02 121.12 1077.94 119.64 1077.94 117.72C1077.94 116.2 1077.3 115.04 1076.02 114.24C1074.74 113.36 1072.3 112.28 1068.7 111L1065.46 109.8C1062.02 108.52 1059.22 107.32 1057.06 106.2C1054.9 105 1052.94 103.2 1051.18 100.8C1049.42 98.4 1048.54 95.24 1048.54 91.32C1048.54 85.08 1050.86 80.24 1055.5 76.8C1060.22 73.28 1066.34 71.52 1073.86 71.52C1079.78 71.52 1086.02 72.68 1092.58 75L1090.3 89.28C1087.98 87.92 1085.34 86.84 1082.38 86.04C1079.5 85.16 1076.78 84.72 1074.22 84.72C1071.58 84.72 1069.46 85.16 1067.86 86.04C1066.34 86.92 1065.58 88.2 1065.58 89.88C1065.58 91.48 1066.22 92.68 1067.5 93.48C1068.78 94.28 1070.94 95.2 1073.98 96.24C1076.38 97.12 1077.78 97.64 1078.18 97.8C1081.54 99.16 1084.34 100.48 1086.58 101.76C1088.82 103.04 1090.78 104.96 1092.46 107.52C1094.14 110 1094.98 113.2 1094.98 117.12C1094.98 123.68 1092.62 128.6 1087.9 131.88C1083.18 135.16 1076.94 136.8 1069.18 136.8Z" fill="#6862BA"/>
</svg>
