<svg width="1312" height="620" viewBox="0 0 1312 620" fill="none" xmlns="http://www.w3.org/2000/svg">
<ellipse cx="259.837" cy="231.552" rx="26.1628" ry="21.5517" fill="#6862BA"/>
<ellipse cx="132.163" cy="306.552" rx="26.1628" ry="21.5517" fill="#6862BA"/>
<ellipse cx="259.837" cy="388.448" rx="26.1628" ry="21.5517" fill="#6862BA"/>
<line y1="-10" x2="135.612" y2="-10" transform="matrix(-0.872015 0.489479 -0.637394 -0.770538 241 231.552)" stroke="#6862BA" stroke-width="20"/>
<line y1="-10" x2="133.604" y2="-10" transform="matrix(-0.830194 -0.557475 0.703393 -0.710801 259.824 381.033)" stroke="#6862BA" stroke-width="20"/>
<path d="M372.68 346.8C368.76 346.8 364.96 346.4 361.28 345.6C357.68 344.8 354.6 343.72 352.04 342.36L353.6 327.96C356.32 329.64 359.32 331 362.6 332.04C365.88 333.08 368.96 333.6 371.84 333.6C374.56 333.6 376.84 333.12 378.68 332.16C380.52 331.12 381.44 329.64 381.44 327.72C381.44 326.2 380.8 325.04 379.52 324.24C378.24 323.36 375.8 322.28 372.2 321L368.96 319.8C365.52 318.52 362.72 317.32 360.56 316.2C358.4 315 356.44 313.2 354.68 310.8C352.92 308.4 352.04 305.24 352.04 301.32C352.04 295.08 354.36 290.24 359 286.8C363.72 283.28 369.84 281.52 377.36 281.52C383.28 281.52 389.52 282.68 396.08 285L393.8 299.28C391.48 297.92 388.84 296.84 385.88 296.04C383 295.16 380.28 294.72 377.72 294.72C375.08 294.72 372.96 295.16 371.36 296.04C369.84 296.92 369.08 298.2 369.08 299.88C369.08 301.48 369.72 302.68 371 303.48C372.28 304.28 374.44 305.2 377.48 306.24C379.88 307.12 381.28 307.64 381.68 307.8C385.04 309.16 387.84 310.48 390.08 311.76C392.32 313.04 394.28 314.96 395.96 317.52C397.64 320 398.48 323.2 398.48 327.12C398.48 333.68 396.12 338.6 391.4 341.88C386.68 345.16 380.44 346.8 372.68 346.8ZM452.224 346.8C445.984 346.8 440.464 345.44 435.664 342.72C430.944 340 427.264 336.2 424.624 331.32C421.984 326.36 420.664 320.64 420.664 314.16C420.664 307.68 421.944 302 424.504 297.12C427.144 292.16 430.824 288.32 435.544 285.6C440.344 282.88 445.864 281.52 452.104 281.52C458.344 281.52 463.824 282.88 468.544 285.6C473.344 288.24 477.024 292 479.584 296.88C482.224 301.76 483.544 307.4 483.544 313.8C483.544 320.28 482.224 326.04 479.584 331.08C477.024 336.04 473.344 339.92 468.544 342.72C463.824 345.44 458.384 346.8 452.224 346.8ZM452.104 332.16C456.424 332.16 459.864 330.52 462.424 327.24C465.064 323.88 466.384 319.48 466.384 314.04C466.384 308.6 465.064 304.28 462.424 301.08C459.864 297.8 456.424 296.16 452.104 296.16C447.784 296.16 444.304 297.8 441.664 301.08C439.104 304.28 437.824 308.6 437.824 314.04C437.824 319.48 439.104 323.88 441.664 327.24C444.304 330.52 447.784 332.16 452.104 332.16ZM538.672 346.8C528.432 346.8 520.472 344.08 514.792 338.64C509.192 333.2 506.392 325.52 506.392 315.6C506.392 308.88 507.712 302.96 510.352 297.84C512.992 292.64 516.712 288.64 521.512 285.84C526.312 282.96 531.872 281.52 538.192 281.52C541.152 281.52 544.232 281.88 547.432 282.6C550.712 283.24 553.232 284 554.992 284.88L551.752 299.16C549.912 298.28 547.872 297.6 545.632 297.12C543.472 296.56 541.432 296.28 539.512 296.28C534.552 296.28 530.552 297.96 527.512 301.32C524.552 304.68 523.072 309.12 523.072 314.64C523.072 320.24 524.592 324.56 527.632 327.6C530.752 330.64 535.152 332.16 540.832 332.16C544.592 332.16 548.632 331.44 552.952 330L555.472 343.68C550.272 345.76 544.672 346.8 538.672 346.8ZM587.928 257.4H607.248V273H587.928V257.4ZM578.568 330.48H590.088V297.72H578.568V283.2H607.008V330.48H617.328V345H578.568V330.48ZM658.449 346.8C652.049 346.8 646.969 344.08 643.209 338.64C639.449 333.2 637.569 325.8 637.569 316.44C637.569 305.08 640.449 296.44 646.209 290.52C651.969 284.52 660.249 281.52 671.049 281.52C677.129 281.52 684.249 282.48 692.409 284.4V345H676.329L676.689 335.16H676.209C674.129 338.92 671.569 341.8 668.529 343.8C665.569 345.8 662.209 346.8 658.449 346.8ZM662.049 332.04C664.529 332.04 666.969 330.72 669.369 328.08C671.769 325.44 674.009 321.92 676.089 317.52V297.36C673.529 296.64 670.969 296.28 668.409 296.28C663.609 296.28 659.969 297.92 657.489 301.2C655.089 304.48 653.889 309.32 653.889 315.72C653.889 320.76 654.609 324.76 656.049 327.72C657.489 330.6 659.489 332.04 662.049 332.04ZM717.22 330.48H728.14V271.8H717.82V257.4H745.06V330.48H755.98V345H717.22V330.48ZM798.169 346.8C794.249 346.8 790.449 346.4 786.769 345.6C783.169 344.8 780.089 343.72 777.529 342.36L779.089 327.96C781.809 329.64 784.809 331 788.089 332.04C791.369 333.08 794.449 333.6 797.329 333.6C800.049 333.6 802.329 333.12 804.169 332.16C806.009 331.12 806.929 329.64 806.929 327.72C806.929 326.2 806.289 325.04 805.009 324.24C803.729 323.36 801.289 322.28 797.689 321L794.449 319.8C791.009 318.52 788.209 317.32 786.049 316.2C783.889 315 781.929 313.2 780.169 310.8C778.409 308.4 777.529 305.24 777.529 301.32C777.529 295.08 779.849 290.24 784.489 286.8C789.209 283.28 795.329 281.52 802.849 281.52C808.769 281.52 815.009 282.68 821.569 285L819.289 299.28C816.969 297.92 814.329 296.84 811.369 296.04C808.489 295.16 805.769 294.72 803.209 294.72C800.569 294.72 798.449 295.16 796.849 296.04C795.329 296.92 794.569 298.2 794.569 299.88C794.569 301.48 795.209 302.68 796.489 303.48C797.769 304.28 799.929 305.2 802.969 306.24C805.369 307.12 806.769 307.64 807.169 307.8C810.529 309.16 813.329 310.48 815.569 311.76C817.809 313.04 819.769 314.96 821.449 317.52C823.129 320 823.969 323.2 823.969 327.12C823.969 333.68 821.609 338.6 816.889 341.88C812.169 345.16 805.929 346.8 798.169 346.8ZM849.739 257.4H866.659V292.2C869.139 288.52 871.979 285.84 875.179 284.16C878.379 282.4 882.059 281.52 886.219 281.52C892.859 281.52 898.059 283.52 901.819 287.52C905.579 291.44 907.459 296.92 907.459 303.96V345H890.539V306.6C890.539 303.4 889.739 300.92 888.139 299.16C886.539 297.32 884.379 296.4 881.659 296.4C878.699 296.4 875.859 297.44 873.139 299.52C870.499 301.52 868.339 304.2 866.659 307.56V345H849.739V257.4ZM954.178 346.8C947.778 346.8 942.698 344.08 938.938 338.64C935.178 333.2 933.298 325.8 933.298 316.44C933.298 305.08 936.178 296.44 941.938 290.52C947.698 284.52 955.978 281.52 966.778 281.52C972.858 281.52 979.978 282.48 988.138 284.4V345H972.058L972.418 335.16H971.938C969.858 338.92 967.298 341.8 964.258 343.8C961.298 345.8 957.938 346.8 954.178 346.8ZM957.778 332.04C960.258 332.04 962.698 330.72 965.098 328.08C967.498 325.44 969.738 321.92 971.818 317.52V297.36C969.258 296.64 966.698 296.28 964.138 296.28C959.338 296.28 955.698 297.92 953.218 301.2C950.818 304.48 949.618 309.32 949.618 315.72C949.618 320.76 950.338 324.76 951.778 327.72C953.218 330.6 955.218 332.04 957.778 332.04ZM1017.83 283.2H1034.75V293.28H1035.71C1038.03 289.2 1040.31 286.2 1042.55 284.28C1044.87 282.36 1047.75 281.4 1051.19 281.4C1052.63 281.4 1053.83 281.56 1054.79 281.88L1052.99 300.12C1050.91 299.56 1049.23 299.28 1047.95 299.28C1046.11 299.28 1044.47 299.64 1043.03 300.36C1041.67 301.08 1040.43 302.04 1039.31 303.24C1038.27 304.44 1036.75 306.28 1034.75 308.76V345H1017.83V283.2ZM1105.65 346.8C1095.65 346.8 1087.77 343.92 1082.01 338.16C1076.33 332.4 1073.49 324.4 1073.49 314.16C1073.49 307.52 1074.73 301.76 1077.21 296.88C1079.69 291.92 1083.17 288.12 1087.65 285.48C1092.21 282.84 1097.53 281.52 1103.61 281.52C1112.57 281.52 1119.45 284.4 1124.25 290.16C1129.05 295.92 1131.45 304.24 1131.45 315.12C1131.45 316.96 1131.41 318.32 1131.33 319.2H1090.53C1091.33 323.44 1093.17 326.68 1096.05 328.92C1098.93 331.08 1102.81 332.16 1107.69 332.16C1110.65 332.16 1113.73 331.8 1116.93 331.08C1120.13 330.28 1122.93 329.24 1125.33 327.96L1128.09 341.52C1124.89 343.2 1121.33 344.48 1117.41 345.36C1113.57 346.32 1109.65 346.8 1105.65 346.8ZM1115.25 306.48C1115.01 303.04 1113.81 300.32 1111.65 298.32C1109.49 296.24 1106.61 295.2 1103.01 295.2C1099.57 295.2 1096.73 296.2 1094.49 298.2C1092.33 300.2 1090.97 302.96 1090.41 306.48H1115.25ZM1175.18 346.8C1171.26 346.8 1167.46 346.4 1163.78 345.6C1160.18 344.8 1157.1 343.72 1154.54 342.36L1156.1 327.96C1158.82 329.64 1161.82 331 1165.1 332.04C1168.38 333.08 1171.46 333.6 1174.34 333.6C1177.06 333.6 1179.34 333.12 1181.18 332.16C1183.02 331.12 1183.94 329.64 1183.94 327.72C1183.94 326.2 1183.3 325.04 1182.02 324.24C1180.74 323.36 1178.3 322.28 1174.7 321L1171.46 319.8C1168.02 318.52 1165.22 317.32 1163.06 316.2C1160.9 315 1158.94 313.2 1157.18 310.8C1155.42 308.4 1154.54 305.24 1154.54 301.32C1154.54 295.08 1156.86 290.24 1161.5 286.8C1166.22 283.28 1172.34 281.52 1179.86 281.52C1185.78 281.52 1192.02 282.68 1198.58 285L1196.3 299.28C1193.98 297.92 1191.34 296.84 1188.38 296.04C1185.5 295.16 1182.78 294.72 1180.22 294.72C1177.58 294.72 1175.46 295.16 1173.86 296.04C1172.34 296.92 1171.58 298.2 1171.58 299.88C1171.58 301.48 1172.22 302.68 1173.5 303.48C1174.78 304.28 1176.94 305.2 1179.98 306.24C1182.38 307.12 1183.78 307.64 1184.18 307.8C1187.54 309.16 1190.34 310.48 1192.58 311.76C1194.82 313.04 1196.78 314.96 1198.46 317.52C1200.14 320 1200.98 323.2 1200.98 327.12C1200.98 333.68 1198.62 338.6 1193.9 341.88C1189.18 345.16 1182.94 346.8 1175.18 346.8Z" fill="#6862BA"/>
</svg>
